# xmcd CD database file
#
# Track frame offsets:
#	150
#	23676
#	45130
#	74140
#	98410
#	125597
#	148107
#	164225
#	191945
#	212385
#
# Disc length: 3245 seconds
#
# Revision: 3
# Processed by: cddbd v1.5.2PL0 Copyright (c) Steve Scherf et al.
# Submitted via: CDex 1.70beta3
#
DISCID=900cab0a
DTITLE=Heaven and Hell - The Devil You Know
DYEAR=2009
DGENRE=Loud Rock
TTITLE0=Atom And Evil
TTITLE1=Fear
TTITLE2=Bible Black
TTITLE3=Double The Pain
TTITLE4=Rock And Roll Angel
TTITLE5=The Turn Of The Screw
TTITLE6=Eating The Cannibals
TTITLE7=Follow The Tears
TTITLE8=Neverwhere
TTITLE9=Breaking Into Heaven
EXTD=YEAR: 2009
EXTT0=
EXTT1=
EXTT2=
EXTT3=
EXTT4=
EXTT5=
EXTT6=
EXTT7=
EXTT8=
EXTT9=
PLAYORDER=
